<svg width="14" height="15" viewBox="0 0 14 15" fill="none" xmlns="http://www.w3.org/2000/svg">
<path d="M5.38688 1.14062V2.03125H9.02974V1.14062C9.02974 0.648833 9.43672 0.25 9.94046 0.25C10.4442 0.25 10.8512 0.648833 10.8512 1.14062V2.03125H12.2172C12.9714 2.03125 13.5833 2.62936 13.5833 3.36719V4.70312H0.833313V3.36719C0.833313 2.62936 1.44491 2.03125 2.19938 2.03125H3.56546V1.14062C3.56546 0.648833 3.97243 0.25 4.47617 0.25C4.97991 0.25 5.38688 0.648833 5.38688 1.14062ZM0.833313 5.59375H13.5833V13.1641C13.5833 13.9016 12.9714 14.5 12.2172 14.5H2.19938C1.44491 14.5 0.833313 13.9016 0.833313 13.1641V5.59375ZM2.65474 8.71094C2.65474 8.95586 2.85851 9.15625 3.1101 9.15625H4.02081C4.27126 9.15625 4.47617 8.95586 4.47617 8.71094V7.82031C4.47617 7.57539 4.27126 7.375 4.02081 7.375H3.1101C2.85851 7.375 2.65474 7.57539 2.65474 7.82031V8.71094ZM6.2976 8.71094C6.2976 8.95586 6.50251 9.15625 6.75296 9.15625H7.66367C7.91412 9.15625 8.11903 8.95586 8.11903 8.71094V7.82031C8.11903 7.57539 7.91412 7.375 7.66367 7.375H6.75296C6.50251 7.375 6.2976 7.57539 6.2976 7.82031V8.71094ZM10.3958 7.375C10.1454 7.375 9.94046 7.57539 9.94046 7.82031V8.71094C9.94046 8.95586 10.1454 9.15625 10.3958 9.15625H11.3065C11.557 9.15625 11.7619 8.95586 11.7619 8.71094V7.82031C11.7619 7.57539 11.557 7.375 11.3065 7.375H10.3958ZM2.65474 12.2734C2.65474 12.5184 2.85851 12.7188 3.1101 12.7188H4.02081C4.27126 12.7188 4.47617 12.5184 4.47617 12.2734V11.3828C4.47617 11.1379 4.27126 10.9375 4.02081 10.9375H3.1101C2.85851 10.9375 2.65474 11.1379 2.65474 11.3828V12.2734ZM6.75296 10.9375C6.50251 10.9375 6.2976 11.1379 6.2976 11.3828V12.2734C6.2976 12.5184 6.50251 12.7188 6.75296 12.7188H7.66367C7.91412 12.7188 8.11903 12.5184 8.11903 12.2734V11.3828C8.11903 11.1379 7.91412 10.9375 7.66367 10.9375H6.75296ZM9.94046 12.2734C9.94046 12.5184 10.1454 12.7188 10.3958 12.7188H11.3065C11.557 12.7188 11.7619 12.5184 11.7619 12.2734V11.3828C11.7619 11.1379 11.557 10.9375 11.3065 10.9375H10.3958C10.1454 10.9375 9.94046 11.1379 9.94046 11.3828V12.2734Z" fill="#D3A344"/>
</svg>
