<svg width="19" height="19" viewBox="0 0 19 19" fill="none" xmlns="http://www.w3.org/2000/svg">
<path d="M15.6744 6.45311H6.69973L7.60617 4.18701C7.68197 3.9977 7.71825 3.7949 7.7128 3.59105C7.70735 3.38721 7.66028 3.18663 7.57447 3.00165C7.48867 2.81666 7.36595 2.65118 7.21385 2.51535C7.06175 2.37953 6.88349 2.27624 6.69001 2.21184L6.43573 2.12732C6.29305 2.07966 6.13929 2.07622 5.99462 2.11746C5.84995 2.1587 5.72112 2.24269 5.62502 2.35842L2.38516 6.2452C2.27345 6.37968 2.21233 6.54902 2.2124 6.72385V14.6799C2.2124 15.0766 2.36999 15.457 2.65051 15.7376C2.93102 16.0181 3.31147 16.1757 3.70818 16.1757H9.10045C9.46844 16.1755 9.82347 16.0397 10.0976 15.7943C10.3718 15.5488 10.5458 15.2109 10.5865 14.8452L11.1871 9.44466H15.6744C16.0711 9.44466 16.4516 9.28707 16.7321 9.00656C17.0126 8.72605 17.1702 8.34559 17.1702 7.94889C17.1702 7.55218 17.0126 7.17173 16.7321 6.89121C16.4516 6.6107 16.0711 6.45311 15.6744 6.45311Z" fill="#311D00"/>
</svg>
