<svg width="18" height="19" viewBox="0 0 18 19" fill="none" xmlns="http://www.w3.org/2000/svg">
<path d="M14.9576 6.69481H5.98294L6.88938 4.42871C6.96517 4.2394 7.00146 4.0366 6.99601 3.83275C6.99055 3.62891 6.94348 3.42833 6.85768 3.24335C6.77187 3.05836 6.64915 2.89288 6.49705 2.75705C6.34495 2.62123 6.16669 2.51794 5.97321 2.45353L5.71893 2.36902C5.57625 2.32136 5.4225 2.31792 5.27783 2.35916C5.13316 2.4004 5.00432 2.48439 4.90822 2.60012L1.66837 6.4869C1.55666 6.62138 1.49554 6.79072 1.49561 6.96555V14.9216C1.49561 15.3183 1.6532 15.6987 1.93371 15.9793C2.21422 16.2598 2.59468 16.4174 2.99138 16.4174H8.38366C8.75165 16.4172 9.10667 16.2814 9.38083 16.036C9.65499 15.7905 9.82905 15.4526 9.86971 15.0869L10.4703 9.68636H14.9576C15.3543 9.68636 15.7348 9.52877 16.0153 9.24826C16.2958 8.96775 16.4534 8.58729 16.4534 8.19059C16.4534 7.79388 16.2958 7.41342 16.0153 7.13291C15.7348 6.8524 15.3543 6.69481 14.9576 6.69481Z" fill="white"/>
</svg>
