<svg width="15" height="18" viewBox="0 0 15 18" fill="none" xmlns="http://www.w3.org/2000/svg">
<path d="M7.28583 0.668945C5.47358 0.668855 3.73452 1.38403 2.44664 2.65903C1.15876 3.93403 0.426143 5.66581 0.40802 7.47798C0.40802 12.1893 6.46909 17.4336 6.72701 17.6571C6.88273 17.7903 7.08091 17.8635 7.28583 17.8635C7.49075 17.8635 7.68893 17.7903 7.84465 17.6571C8.14556 17.4336 14.1636 12.1893 14.1636 7.47798C14.1455 5.66581 13.4129 3.93403 12.125 2.65903C10.8371 1.38403 9.09809 0.668855 7.28583 0.668945ZM7.28583 10.1259C6.6907 10.1259 6.10893 9.94946 5.6141 9.61882C5.11926 9.28818 4.73358 8.81823 4.50584 8.2684C4.27809 7.71857 4.2185 7.11356 4.33461 6.52986C4.45071 5.94616 4.73729 5.41 5.15812 4.98918C5.57894 4.56836 6.1151 4.28177 6.6988 4.16567C7.28249 4.04956 7.88751 4.10915 8.43734 4.3369C8.98717 4.56465 9.45712 4.95032 9.78776 5.44516C10.1184 5.93999 10.2949 6.52176 10.2949 7.11689C10.2949 7.91494 9.97785 8.6803 9.41354 9.24461C8.84924 9.80891 8.08388 10.1259 7.28583 10.1259Z" fill="#D3A344"/>
</svg>
